<svg width="1150" height="300" viewBox="0 0 1150 300" fill="none" xmlns="http://www.w3.org/2000/svg">
<path d="M103.21 116.86V88.95L127.38 75L151.55 88.95V116.86L127.38 130.82L103.21 116.86Z" fill="#EB2028"/>
<path d="M205.93 116.86V88.95L181.76 75L157.59 88.95V116.86L181.76 130.82L205.93 116.86Z" fill="#EB2028"/>
<path d="M233.15 163.96V136.05L208.97 122.09L184.8 136.05V163.96L208.97 177.91L233.15 163.96Z" fill="#EB2028"/>
<path d="M124.35 163.96V136.05L100.17 122.09L76 136.05V163.96L100.17 177.91L124.35 163.96Z" fill="#EB2028"/>
<path d="M103.21 211.04V183.13L127.38 169.18L151.55 183.13V211.04L127.38 225L103.21 211.04Z" fill="#EB2028"/>
<path d="M205.93 211.04V183.13L181.76 169.18L157.59 183.13V211.04L181.76 225L205.93 211.04Z" fill="#EB2028"/>
<path d="M268.35 204.796C267.946 204.796 267.744 204.594 267.744 204.189V202.37C267.744 201.966 268.097 201.764 268.805 201.764C271.18 201.764 273.807 201.511 276.687 201.006C285.934 199.44 290.558 196.256 290.558 191.456V111.493C290.052 105.025 287.097 101.513 281.69 100.957C280.073 100.755 278.279 100.654 276.308 100.654H271.988C271.584 100.654 271.382 100.452 271.382 100.048V98.1529C271.382 97.7487 271.584 97.5466 271.988 97.5466L275.323 97.4708L288.36 97.395L315.343 96.5613C344.246 96.5613 358.697 105.101 358.697 122.18C358.697 129.406 354.958 135.419 347.479 140.219C346.317 140.977 345.307 141.533 344.448 141.886C343.639 142.24 343.184 142.442 343.083 142.493C349.753 146.232 354.983 150.426 358.773 155.075C362.613 159.723 364.533 165.282 364.533 171.749C364.533 185.544 358.015 195.145 344.978 200.551C338.258 203.381 330.956 204.796 323.074 204.796H268.35ZM306.702 145.676C306.045 145.676 305.717 145.954 305.717 146.51V188.045C305.717 191.633 307.384 194.513 310.719 196.686C314.105 198.859 317.743 199.945 321.634 199.945C329.112 199.945 335.479 197.292 340.734 191.986C345.989 186.63 348.616 180.061 348.616 172.28C348.616 164.448 345.787 158.056 340.127 153.104C334.519 148.152 327.394 145.676 318.753 145.676H306.702ZM305.565 139.537C305.565 140.497 306.146 140.977 307.308 140.977H325.954C330.805 140.977 334.872 139.183 338.157 135.595C341.492 132.008 343.159 127.991 343.159 123.544C343.159 115.611 340.911 109.876 336.413 106.339C331.916 102.751 325.929 100.957 318.45 100.957C316.176 101.109 314.585 101.185 313.675 101.185C312.816 101.185 311.907 101.185 310.946 101.185C309.986 101.134 309.026 101.185 308.066 101.336C307.106 101.488 306.449 101.816 306.096 102.322C305.742 102.827 305.565 103.661 305.565 104.823V139.537Z" fill="black"/>
<path d="M469.66 198.277C465.264 200.955 460.464 203.052 455.259 204.568C450.055 206.084 445.431 206.842 441.389 206.842C433.102 206.842 425.194 205.503 417.665 202.825C407.357 199.086 399.07 193.553 392.805 186.226C384.821 176.878 380.829 165.029 380.829 150.678C380.829 140.32 383.482 130.896 388.787 122.407C394.093 113.868 401.42 107.122 410.768 102.17C420.166 97.2181 430.247 94.7422 441.01 94.7422C451.823 94.7422 461.5 97.1423 470.039 101.943C478.579 106.743 485.425 113.337 490.579 121.725C495.733 130.113 498.31 139.208 498.31 149.011C498.31 158.763 495.759 168.061 490.655 176.903C485.552 185.696 478.553 192.82 469.66 198.277ZM396.746 148.253C396.746 156.641 398.59 164.978 402.279 173.265C406.018 181.502 411.349 188.222 418.271 193.427C425.194 198.631 433.203 201.233 442.298 201.233C455.234 201.233 465.315 196.281 472.54 186.378C479.059 177.434 482.318 166.014 482.318 152.119C482.318 138.223 478.326 126.247 470.342 116.192C466.451 111.291 461.676 107.375 456.017 104.444C450.408 101.463 444.724 99.972 438.963 99.972C433.253 99.972 428.554 100.604 424.866 101.867C421.227 103.13 417.918 104.873 414.936 107.097C411.955 109.269 409.328 111.872 407.054 114.904C404.78 117.935 402.885 121.22 401.369 124.757C398.287 132.033 396.746 139.865 396.746 148.253Z" fill="black"/>
<path d="M511.802 204.796C511.398 204.796 511.195 204.594 511.195 204.189V202.37C511.195 201.966 511.448 201.764 511.953 201.764H513.697C516.476 201.764 518.371 201.511 519.381 201.006C523.12 199.187 524.99 194.185 524.99 185.999V107.248C524.99 103.863 521.706 101.842 515.137 101.185C513.671 101.033 512.636 100.957 512.029 100.957C511.473 100.957 511.195 100.755 511.195 100.351V98.5319C511.195 98.1277 511.398 97.9256 511.802 97.9256H539.543L611.472 177.434C611.724 177.687 611.901 177.889 612.002 178.04C612.103 178.141 612.255 178.192 612.457 178.192C612.709 178.192 612.836 177.965 612.836 177.51V125.287C612.836 115.232 612.002 108.663 610.335 105.581C608.667 102.498 605.307 100.957 600.254 100.957H596.388C595.984 100.957 595.782 100.755 595.782 100.351V98.5319C595.782 98.1277 595.984 97.9256 596.388 97.9256H635.802C636.206 97.9256 636.408 98.1277 636.408 98.5319V100.351C636.408 100.755 635.65 100.957 634.134 100.957C632.669 100.957 630.218 101.816 626.782 103.534C623.397 105.252 621.704 107.375 621.704 109.901V202.598C621.704 203.709 621.552 204.493 621.249 204.947C620.946 205.453 620.213 205.705 619.051 205.705C617.939 205.705 617.106 205.478 616.55 205.023C615.994 204.568 615.337 203.911 614.579 203.052L536.435 116.419C535.93 115.914 535.475 115.661 535.071 115.661C534.818 115.661 534.692 115.914 534.692 116.419V192.062C534.692 196.66 538.33 199.692 545.606 201.158C547.627 201.562 549.168 201.764 550.23 201.764C551.291 201.764 551.821 201.966 551.821 202.37V204.189C551.821 204.594 551.619 204.796 551.215 204.796H511.802Z" fill="black"/>
<path d="M667.698 169.094L647.053 148.604L667.698 127.958L688.188 148.604L667.698 169.094Z" fill="black"/>
<path d="M726.376 202.37C726.376 201.966 726.603 201.764 727.058 201.764H729.18C734.132 201.764 738.099 200.703 741.08 198.581C744.112 196.458 745.628 193.982 745.628 191.153V107.248C745.628 106.187 745.4 105.606 744.946 105.505C744.541 105.353 744.036 105.227 743.43 105.126H714.325C709.625 106.137 706.543 109.749 705.078 115.965C704.269 119.3 703.789 121.447 703.638 122.407C703.486 123.317 703.208 123.771 702.804 123.771H701.44C701.136 123.771 700.985 123.67 700.985 123.468V120.967L703.789 97.3192C704.092 95.7528 704.598 94.9696 705.305 94.9696C706.012 94.9696 706.77 95.4749 707.579 96.4855C708.387 97.4455 709.929 97.9256 712.202 97.9256H793.909C796.082 97.9256 797.395 97.6729 797.85 97.1676C798.305 96.6623 798.734 96.1823 799.139 95.7275C799.543 95.2222 800.048 94.9696 800.654 94.9696C801.311 94.9696 801.716 95.2222 801.867 95.7275C802.069 96.2328 802.221 96.7634 802.322 97.3192L805.126 120.967V123.468C805.126 123.67 804.975 123.771 804.672 123.771H803.307C802.903 123.771 802.625 123.392 802.474 122.635C801.665 117.582 800.503 113.59 798.987 110.659C797.471 107.678 795.071 105.833 791.787 105.126H762.606C761.999 105.227 761.469 105.353 761.014 105.505C760.61 105.606 760.408 106.187 760.408 107.248V191.153C760.408 193.982 761.898 196.458 764.88 198.581C767.911 200.703 771.903 201.764 776.855 201.764H779.053C779.457 201.764 779.659 201.966 779.659 202.37V204.189C779.659 204.594 779.457 204.796 779.053 204.796H726.982C726.578 204.796 726.376 204.594 726.376 204.189V202.37Z" fill="black"/>
<path d="M907.146 198.277C902.75 200.955 897.949 203.052 892.745 204.568C887.54 206.084 882.917 206.842 878.874 206.842C870.588 206.842 862.68 205.503 855.151 202.825C844.843 199.086 836.556 193.553 830.29 186.226C822.306 176.878 818.315 165.029 818.315 150.678C818.315 140.32 820.967 130.896 826.273 122.407C831.579 113.868 838.905 107.122 848.253 102.17C857.652 97.2181 867.733 94.7422 878.495 94.7422C889.309 94.7422 898.985 97.1423 907.525 101.943C916.064 106.743 922.911 113.337 928.065 121.725C933.219 130.113 935.796 139.208 935.796 149.011C935.796 158.763 933.244 168.061 928.141 176.903C923.037 185.696 916.039 192.82 907.146 198.277ZM834.231 148.253C834.231 156.641 836.076 164.978 839.764 173.265C843.504 181.502 848.834 188.222 855.757 193.427C862.68 198.631 870.689 201.233 879.784 201.233C892.719 201.233 902.8 196.281 910.026 186.378C916.544 177.434 919.803 166.014 919.803 152.119C919.803 138.223 915.812 126.247 907.828 116.192C903.937 111.291 899.162 107.375 893.503 104.444C887.894 101.463 882.209 99.972 876.449 99.972C870.739 99.972 866.04 100.604 862.351 101.867C858.713 103.13 855.403 104.873 852.422 107.097C849.441 109.269 846.813 111.872 844.539 114.904C842.266 117.935 840.371 121.22 838.855 124.757C835.773 132.033 834.231 139.865 834.231 148.253Z" fill="black"/>
<path d="M949.287 204.796C948.883 204.796 948.681 204.594 948.681 204.189V202.37C948.681 201.966 948.934 201.764 949.439 201.764H951.182C953.961 201.764 955.856 201.511 956.867 201.006C960.606 199.187 962.476 194.185 962.476 185.999V107.248C962.476 103.863 959.191 101.842 952.622 101.185C951.157 101.033 950.121 100.957 949.515 100.957C948.959 100.957 948.681 100.755 948.681 100.351V98.5319C948.681 98.1277 948.883 97.9256 949.287 97.9256H977.028L1048.96 177.434C1049.21 177.687 1049.39 177.889 1049.49 178.04C1049.59 178.141 1049.74 178.192 1049.94 178.192C1050.2 178.192 1050.32 177.965 1050.32 177.51V125.287C1050.32 115.232 1049.49 108.663 1047.82 105.581C1046.15 102.498 1042.79 100.957 1037.74 100.957H1033.87C1033.47 100.957 1033.27 100.755 1033.27 100.351V98.5319C1033.27 98.1277 1033.47 97.9256 1033.87 97.9256H1073.29C1073.69 97.9256 1073.89 98.1277 1073.89 98.5319V100.351C1073.89 100.755 1073.14 100.957 1071.62 100.957C1070.15 100.957 1067.7 101.816 1064.27 103.534C1060.88 105.252 1059.19 107.375 1059.19 109.901V202.598C1059.19 203.709 1059.04 204.493 1058.73 204.947C1058.43 205.453 1057.7 205.705 1056.54 205.705C1055.42 205.705 1054.59 205.478 1054.04 205.023C1053.48 204.568 1052.82 203.911 1052.06 203.052L973.921 116.419C973.415 115.914 972.961 115.661 972.556 115.661C972.304 115.661 972.177 115.914 972.177 116.419V192.062C972.177 196.66 975.815 199.692 983.092 201.158C985.113 201.562 986.654 201.764 987.715 201.764C988.776 201.764 989.307 201.966 989.307 202.37V204.189C989.307 204.594 989.105 204.796 988.701 204.796H949.287Z" fill="black"/>
</svg>
