<svg id="Layer_1" data-name="Layer 1" xmlns="http://www.w3.org/2000/svg" viewBox="0 0 295.41 65.55"><defs><style>.cls-1{fill:#080808;}.cls-2{fill:#070807;}.cls-3{fill:#ee2525;}</style></defs><path class="cls-1" d="M174.44,45.29c.18-8.81.84-17.52,0-26.21-.29-3.09-1.51-4-5-4.15-.53,0-1.38.28-1.42-.55-.05-1,.9-.69,1.47-.69,4.4,0,8.8,0,13.21,0,.52,0,1.33-.26,1.35.63,0,.73-.73.56-1.19.66-3.82.9-4.58,1.83-4.58,5.64q0,16.59,0,33.17c0,.85.46,2-.62,2.43s-1.87-.54-2.57-1.31q-14.88-16.5-29.77-33c-.33-.37-.58-.87-1.2-1-.56.51-.27,1.19-.27,1.77q0,13.2,0,26.39c0,3.74.66,4.57,4.34,5.39a11.3,11.3,0,0,0,1.53.23c.49,0,1,.11.91.73s-.53.43-.88.47a5.81,5.81,0,0,1-.59,0c-4.4,0-8.8,0-13.21,0-.49,0-1.34.37-1.39-.52s.81-.6,1.33-.64c2.41-.19,3.38-.92,3.84-3.28A19.88,19.88,0,0,0,140,47.6q0-14.46,0-28.91c0-2.62-.55-3.23-3.21-3.59a7.61,7.61,0,0,1-1-.1c-.5-.14-1.37.15-1.27-.77s.91-.54,1.43-.54c2.65,0,5.31.05,8,0A3.53,3.53,0,0,1,147,15q12.33,13.7,24.72,27.34Z"/><path class="cls-1" d="M35.17,31.32c1.36,1,2.7,1.9,3.92,2.93a11.53,11.53,0,0,1-2.31,19.48A19.49,19.49,0,0,1,28,55.9c-7.18,0-14.37,0-21.55,0-.47,0-1.31.43-1.39-.49s.79-.59,1.28-.68,1-.08,1.54-.16c5.6-.93,6.15-1.58,6.15-7.2V20.41c0-4.35-1.17-5.55-5.46-5.64-.46,0-.91,0-1.36,0s-.72-.16-.69-.67.28-.52.63-.53h.39c7.36.25,14.73-1,22.09,0a20.29,20.29,0,0,1,5.79,1.52c3.27,1.44,5.29,3.8,5.57,7.49.26,3.41-1.4,5.78-4,7.65C36.44,30.58,35.84,30.91,35.17,31.32ZM20.11,41.41V48.2c0,3.42,1.75,5.35,5.17,5.73a10.55,10.55,0,0,0,11.5-8.21A10.35,10.35,0,0,0,30,33.36c-3-1.09-6.13-.68-9.21-.76-1,0-.7.75-.7,1.26C20.1,36.38,20.11,38.9,20.11,41.41ZM20,22.88c0,2.13,0,4.26,0,6.39,0,1.07.29,1.5,1.42,1.46,2.32-.08,4.65,0,7-.05a6.07,6.07,0,0,0,4.83-2.46A8.11,8.11,0,0,0,29.5,15.56c-2.71-.93-5.49-.49-8.25-.47-1.06,0-1.21.76-1.21,1.6Z"/><path class="cls-1" d="M199.75,13.59a93.54,93.54,0,0,1,15.86.62c12.76,1.73,23.39,18.32,12.16,32.88-4.46,5.78-10.66,8.55-17.85,8.77s-14.63.06-21.94,0c-.48,0-1.3.43-1.39-.51-.11-1.16.85-.68,1.38-.72,4-.28,4.92-1.24,4.92-5.24V19.74c0-3.71-.89-4.63-4.68-4.8h-.58c-.5,0-1.1.1-1.06-.73s.7-.6,1.14-.6C191.72,13.58,195.74,13.59,199.75,13.59Zm-1,20.47V51.13c0,2.29.6,3,2.9,3.23a41.35,41.35,0,0,0,4.85.14c7.32-.21,13.38-2.8,17.15-9.42,2.44-4.28,2.65-9,2.17-13.74-.9-8.89-7.37-15.62-16.07-16.46-3-.29-6.09,0-9.13-.15-1.44-.05-1.91.4-1.9,1.86C198.78,22.41,198.74,28.23,198.74,34.06Z"/><path class="cls-2" d="M53.75,35c0-5,0-10,0-14.94,0-3.48-1.21-4.77-4.66-5.09-.51,0-1.34.3-1.3-.66s.86-.59,1.36-.6c6-.17,11.9-.41,17.86-.41,8.33,0,14.55,7.39,12.74,14.87a9.08,9.08,0,0,1-5.31,6.28c-1.44.66-1.34,1.2-.59,2.38,2.75,4.3,5.41,8.65,8,13a13.73,13.73,0,0,0,5.86,5.46c.36.17,1,.14.86.82s-.76.59-1.27.58c-4.19-.07-7.8-1.56-10.23-5-3-4.22-5.71-8.61-8.43-13a3.32,3.32,0,0,0-3.36-1.92,27.73,27.73,0,0,1-4.45-.24c-.94-.08-1.28.26-1.27,1.18,0,4.34,0,8.67,0,13a3.13,3.13,0,0,0,2.85,3.35c1.14.2,2.28.44,3.42.63.49.08.93.17.87.78s-.55.43-.89.44q-8.55,0-17.1,0c-.42,0-1,.13-.94-.61,0-.54.39-.57.79-.61s.9-.14,1.34-.23c3.1-.6,3.79-1.42,3.79-4.55C53.76,44.93,53.75,39.94,53.75,35ZM59.6,24.8c0,1.87-.05,3.75,0,5.62.15,5.32-1.17,4.92,5.27,4.78,3.73-.08,7.16-1.43,8.39-5.38,1.36-4.35,1.48-8.71-2.18-12.25-3-3-6.84-3-10.72-2.62-1,.1-.75.9-.76,1.51C59.59,19.24,59.6,22,59.6,24.8Z"/><path class="cls-2" d="M123,55.91c-2.72,0-5.44,0-8.16,0-.4,0-1,.2-1-.51s.47-.64.94-.7a25.4,25.4,0,0,0,3.83-.52c2-.52,2.58-1.69,1.91-3.62-1.33-3.83-2.73-7.64-4-11.48a2.37,2.37,0,0,0-2.72-1.83c-2.91.12-5.83.09-8.74,0A2.17,2.17,0,0,0,102.63,39c-1.31,3.91-2.59,7.83-4,11.69a2.24,2.24,0,0,0,1.25,3.17,8.6,8.6,0,0,0,4.12.91c.42,0,1-.15,1,.54s-.49.62-.92.62h-14c-.38,0-.83.05-.87-.5s.27-.66.72-.7c3.23-.25,4.58-2.45,5.52-5.18,3.82-11.15,7.88-22.23,11.38-33.47.8-2.56.51-2.14,3.45-2.38,3.73-.31,3.44.57,4.18,2.72,3.89,11.26,8,22.44,12,33.67a6.45,6.45,0,0,0,5.2,4.6c.46.09.93.08.89.73s-.63.5-1,.5C128.71,55.92,125.87,55.91,123,55.91ZM109.39,19.46c-1.68,4.87-3.16,9.18-4.66,13.49-.32.91.25,1,.89,1,2.59,0,5.17,0,7.76,0,1,0,1.13-.46.86-1.22C112.7,28.49,111.15,24.27,109.39,19.46Z"/><polygon points="233.39 15.53 249.12 15.53 265.94 32.86 249.51 49.91 222.93 61.14 251.44 32.74 233.39 15.53"/><polygon class="cls-3" points="292.12 5.96 267.18 31.54 259.82 24.09 267.93 15.65 292.12 5.96"/><polygon class="cls-3" points="267.23 34.09 259.39 42.26 266.82 50.19 282.46 50.04 267.23 34.09"/></svg>